<svg xmlns="http://www.w3.org/2000/svg" viewBox="0 0 200 200" role="img" aria-label="Bowl of tomato soup with a basil garnish">
  <rect width="200" height="200" fill="#fbeee8"/>
  <path d="M35 110 a65 65 0 0 0 130 0 z" fill="#c8452f"/>
  <ellipse cx="100" cy="110" rx="65" ry="16" fill="#e2593c"/>
  <path d="M40 112 Q 100 128 160 112" stroke="#f2a08a" stroke-width="4" fill="none" stroke-linecap="round"/>
  <path d="M45 165 A 60 14 0 0 0 155 165 L 150 128 A 55 12 0 0 1 50 128 Z" fill="#f4d9b0"/>
  <path d="M45 165 A 60 14 0 0 0 155 165" fill="none" stroke="#d9b57e" stroke-width="3"/>
  <g fill="#4c8c4a">
    <ellipse cx="95" cy="102" rx="8" ry="5" transform="rotate(-20 95 102)"/>
    <ellipse cx="110" cy="98" rx="8" ry="5" transform="rotate(15 110 98)"/>
  </g>
</svg>
